<svg xmlns="http://www.w3.org/2000/svg" version="1.1" xmlns:xlink="http://www.w3.org/1999/xlink" xmlns:svgjs="http://svgjs.dev/svgjs" width="1440" height="560" preserveAspectRatio="none" viewBox="0 0 1440 560"><g mask="url(&quot;#SvgjsMask1004&quot;)" fill="none"><rect width="1440" height="560" x="0" y="0" fill="rgba(255, 255, 255, 1)"></rect><path d="M1045.16 296.37L1072.83 296.37L1072.83 324.04L1045.16 324.04z" fill="rgba(0, 0, 0, 1)"></path><path d="M569.59 419.88L622.07 419.88L622.07 472.36L569.59 472.36z" fill="rgba(0, 0, 0, 1)"></path><path d="M333.81 307.56L389.17 307.56L389.17 362.92L333.81 362.92z" stroke="rgba(0, 0, 0, 1)"></path><path d="M1137.79 550.97a9.16 9.16 0 1 0-17.88-4.01z" stroke="rgba(0, 0, 0, 1)"></path><path d="M823.66 334.16L847.35 334.16L847.35 357.85L823.66 357.85z" fill="rgba(0, 0, 0, 1)"></path><path d="M216.18 388.33a8.25 8.25 0 1 0 13.94-8.83z" fill="rgba(0, 0, 0, 1)"></path><path d="M749.43 474.92L774.81 474.92L774.81 515.79L749.43 515.79z" stroke="rgba(0, 0, 0, 1)"></path><path d="M1020.54 157.39 a51.71 51.71 0 1 0 103.42 0 a51.71 51.71 0 1 0 -103.42 0z" stroke="rgba(0, 0, 0, 1)"></path><path d="M774.59 260.29L781.41 260.29L781.41 267.11L774.59 267.11z" fill="rgba(0, 0, 0, 1)"></path><path d="M894.23 76.28a5.29 5.29 0 1 0 1.1 10.52z" fill="rgba(0, 0, 0, 1)"></path><path d="M544.51 278.84L590.28 278.84L590.28 298.42L544.51 298.42z" stroke="rgba(0, 0, 0, 1)"></path><path d="M1348.55 527 a32.11 32.11 0 1 0 64.22 0 a32.11 32.11 0 1 0 -64.22 0z" fill="rgba(0, 0, 0, 1)"></path><path d="M1193.09 445.61 a31.11 31.11 0 1 0 62.22 0 a31.11 31.11 0 1 0 -62.22 0z" fill="rgba(0, 0, 0, 1)"></path><path d="M460.07 183.52a26.12 26.12 0 1 0-29.07 43.41z" stroke="rgba(0, 0, 0, 1)"></path><path d="M176.71 173.15 a18.3 18.3 0 1 0 36.6 0 a18.3 18.3 0 1 0 -36.6 0z" fill="rgba(0, 0, 0, 1)"></path><path d="M868.98 426.73L904.4 426.73L904.4 462.15L868.98 462.15z" fill="rgba(0, 0, 0, 1)"></path><path d="M221.49 377.3 a30 30 0 1 0 60 0 a30 30 0 1 0 -60 0z" stroke="rgba(0, 0, 0, 1)"></path><path d="M163.56 217.93L165.47 217.93L165.47 257.81L163.56 257.81z" stroke="rgba(0, 0, 0, 1)"></path><path d="M1085.92 202.04a16.57 16.57 0 1 0-10.43-31.46z" stroke="rgba(0, 0, 0, 1)"></path><path d="M552.19 269.13L603.46 269.13L603.46 283.95L552.19 283.95z" stroke="rgba(0, 0, 0, 1)"></path><path d="M655.6 10.23 a48.34 48.34 0 1 0 96.68 0 a48.34 48.34 0 1 0 -96.68 0z" fill="rgba(0, 0, 0, 1)"></path><path d="M298.78 466.54 a17.88 17.88 0 1 0 35.76 0 a17.88 17.88 0 1 0 -35.76 0z" stroke="rgba(0, 0, 0, 1)"></path><path d="M1063.48 472.84a5.5 5.5 0 1 0 10.56-3.06z" stroke="rgba(0, 0, 0, 1)"></path><path d="M1066.3 433.27L1119.84 433.27L1119.84 486.81L1066.3 486.81z" stroke="rgba(0, 0, 0, 1)"></path><path d="M456.72 211.76a43.04 43.04 0 1 0-75.99 40.44z" stroke="rgba(0, 0, 0, 1)"></path><path d="M465.03 472.93L468.32 472.93L468.32 476.22L465.03 476.22z" stroke="rgba(0, 0, 0, 1)"></path><path d="M487.92 233.49L498.29 233.49L498.29 243.86L487.92 243.86z" stroke="rgba(0, 0, 0, 1)"></path><path d="M1289.64 250.29L1333.54 250.29L1333.54 294.19L1289.64 294.19z" stroke="rgba(0, 0, 0, 1)"></path><path d="M730.57 90.2L771.88 90.2L771.88 143.2L730.57 143.2z" fill="rgba(0, 0, 0, 1)"></path><path d="M43.05 260.03 a54.41 54.41 0 1 0 108.82 0 a54.41 54.41 0 1 0 -108.82 0z" fill="rgba(0, 0, 0, 1)"></path><path d="M16.17 484.69L25.53 484.69L25.53 539.06L16.17 539.06z" stroke="rgba(0, 0, 0, 1)"></path><path d="M627.95 544.15L663.88 544.15L663.88 579.02L627.95 579.02z" stroke="rgba(0, 0, 0, 1)"></path><path d="M668.02 298.66L680.67 298.66L680.67 318.19L668.02 318.19z" fill="rgba(0, 0, 0, 1)"></path></g><defs><mask id="SvgjsMask1004"><rect width="1440" height="560" fill="#ffffff"></rect></mask></defs></svg>