<svg xmlns="http://www.w3.org/2000/svg" version="1.1" xmlns:xlink="http://www.w3.org/1999/xlink" xmlns:svgjs="http://svgjs.dev/svgjs" width="1440" height="560" preserveAspectRatio="none" viewBox="0 0 1440 560"><g mask="url(&quot;#SvgjsMask1008&quot;)" fill="none"><rect width="1440" height="560" x="0" y="0" fill="rgba(255, 255, 255, 1)"></rect><path d="M-68.66 347.67L-68.66 347.67" stroke="rgba(0, 0, 0, 1)" stroke-width="1.5"></path><path d="M-68.66 347.67L-97.58 491.02" stroke="rgba(0, 0, 0, 1)" stroke-width="1.5"></path><path d="M-97.58 491.02L-97.58 491.02" stroke="rgba(0, 0, 0, 1)" stroke-width="1.5"></path><path d="M-97.58 491.02L-76.28 688.44" stroke="rgba(0, 0, 0, 1)" stroke-width="1.5"></path><path d="M-97.58 491.02L60.57 658.19" stroke="rgba(0, 0, 0, 1)" stroke-width="1.5"></path><path d="M-76.28 688.44L-76.28 688.44" stroke="rgba(0, 0, 0, 1)" stroke-width="1.5"></path><path d="M-76.28 688.44L60.57 658.19" stroke="rgba(0, 0, 0, 1)" stroke-width="1.5"></path><path d="M60.57 658.19L60.57 658.19" stroke="rgba(0, 0, 0, 1)" stroke-width="1.5"></path><path d="M60.57 658.19L215.17 681.7" stroke="rgba(0, 0, 0, 1)" stroke-width="1.5"></path><path d="M60.57 658.19L196.53 497.6" stroke="rgba(0, 0, 0, 1)" stroke-width="1.5"></path><path d="M234.3 361.59L234.3 361.59" stroke="rgba(0, 0, 0, 1)" stroke-width="1.5"></path><path d="M234.3 361.59L196.53 497.6" stroke="rgba(0, 0, 0, 1)" stroke-width="1.5"></path><path d="M234.3 361.59L405.18 368.86" stroke="rgba(0, 0, 0, 1)" stroke-width="1.5"></path><path d="M196.53 497.6L196.53 497.6" stroke="rgba(0, 0, 0, 1)" stroke-width="1.5"></path><path d="M196.53 497.6L215.17 681.7" stroke="rgba(0, 0, 0, 1)" stroke-width="1.5"></path><path d="M196.53 497.6L383.25 497.84" stroke="rgba(0, 0, 0, 1)" stroke-width="1.5"></path><path d="M196.53 497.6L405.18 368.86" stroke="rgba(0, 0, 0, 1)" stroke-width="1.5"></path><path d="M196.53 497.6L410.07 642.07" stroke="rgba(0, 0, 0, 1)" stroke-width="1.5"></path><path d="M215.17 681.7L215.17 681.7" stroke="rgba(0, 0, 0, 1)" stroke-width="1.5"></path><path d="M215.17 681.7L410.07 642.07" stroke="rgba(0, 0, 0, 1)" stroke-width="1.5"></path><path d="M405.18 368.86L405.18 368.86" stroke="rgba(0, 0, 0, 1)" stroke-width="1.5"></path><path d="M405.18 368.86L512.36 343.44" stroke="rgba(0, 0, 0, 1)" stroke-width="1.5"></path><path d="M405.18 368.86L383.25 497.84" stroke="rgba(0, 0, 0, 1)" stroke-width="1.5"></path><path d="M383.25 497.84L383.25 497.84" stroke="rgba(0, 0, 0, 1)" stroke-width="1.5"></path><path d="M383.25 497.84L410.07 642.07" stroke="rgba(0, 0, 0, 1)" stroke-width="1.5"></path><path d="M383.25 497.84L512.36 343.44" stroke="rgba(0, 0, 0, 1)" stroke-width="1.5"></path><path d="M383.25 497.84L234.3 361.59" stroke="rgba(0, 0, 0, 1)" stroke-width="1.5"></path><path d="M410.07 642.07L410.07 642.07" stroke="rgba(0, 0, 0, 1)" stroke-width="1.5"></path><path d="M410.07 642.07L651.16 651.32" stroke="rgba(0, 0, 0, 1)" stroke-width="1.5"></path><path d="M410.07 642.07L405.18 368.86" stroke="rgba(0, 0, 0, 1)" stroke-width="1.5"></path><path d="M512.36 343.44L512.36 343.44" stroke="rgba(0, 0, 0, 1)" stroke-width="1.5"></path><path d="M512.36 343.44L653.82 353.31" stroke="rgba(0, 0, 0, 1)" stroke-width="1.5"></path><path d="M656.16 246.88L656.16 246.88" stroke="rgba(0, 0, 0, 1)" stroke-width="1.5"></path><path d="M656.16 246.88L653.82 353.31" stroke="rgba(0, 0, 0, 1)" stroke-width="1.5"></path><path d="M656.16 246.88L817.01 195.39" stroke="rgba(0, 0, 0, 1)" stroke-width="1.5"></path><path d="M656.16 246.88L512.36 343.44" stroke="rgba(0, 0, 0, 1)" stroke-width="1.5"></path><path d="M656.16 246.88L850.46 395.29" stroke="rgba(0, 0, 0, 1)" stroke-width="1.5"></path><path d="M656.16 246.88L853.1 58.22" stroke="rgba(0, 0, 0, 1)" stroke-width="1.5"></path><path d="M653.82 353.31L653.82 353.31" stroke="rgba(0, 0, 0, 1)" stroke-width="1.5"></path><path d="M653.82 353.31L850.46 395.29" stroke="rgba(0, 0, 0, 1)" stroke-width="1.5"></path><path d="M653.82 353.31L688.13 561.82" stroke="rgba(0, 0, 0, 1)" stroke-width="1.5"></path><path d="M688.13 561.82L688.13 561.82" stroke="rgba(0, 0, 0, 1)" stroke-width="1.5"></path><path d="M688.13 561.82L651.16 651.32" stroke="rgba(0, 0, 0, 1)" stroke-width="1.5"></path><path d="M688.13 561.82L811.97 531.19" stroke="rgba(0, 0, 0, 1)" stroke-width="1.5"></path><path d="M651.16 651.32L651.16 651.32" stroke="rgba(0, 0, 0, 1)" stroke-width="1.5"></path><path d="M651.16 651.32L811.97 531.19" stroke="rgba(0, 0, 0, 1)" stroke-width="1.5"></path><path d="M651.16 651.32L858.75 677.51" stroke="rgba(0, 0, 0, 1)" stroke-width="1.5"></path><path d="M853.1 58.22L853.1 58.22" stroke="rgba(0, 0, 0, 1)" stroke-width="1.5"></path><path d="M853.1 58.22L939.81 106.89" stroke="rgba(0, 0, 0, 1)" stroke-width="1.5"></path><path d="M853.1 58.22L817.01 195.39" stroke="rgba(0, 0, 0, 1)" stroke-width="1.5"></path><path d="M853.1 58.22L999.18 -78.23" stroke="rgba(0, 0, 0, 1)" stroke-width="1.5"></path><path d="M853.1 58.22L994.63 256.65" stroke="rgba(0, 0, 0, 1)" stroke-width="1.5"></path><path d="M817.01 195.39L817.01 195.39" stroke="rgba(0, 0, 0, 1)" stroke-width="1.5"></path><path d="M850.46 395.29L850.46 395.29" stroke="rgba(0, 0, 0, 1)" stroke-width="1.5"></path><path d="M850.46 395.29L943.2 347.64" stroke="rgba(0, 0, 0, 1)" stroke-width="1.5"></path><path d="M850.46 395.29L811.97 531.19" stroke="rgba(0, 0, 0, 1)" stroke-width="1.5"></path><path d="M850.46 395.29L983.19 500.08" stroke="rgba(0, 0, 0, 1)" stroke-width="1.5"></path><path d="M811.97 531.19L811.97 531.19" stroke="rgba(0, 0, 0, 1)" stroke-width="1.5"></path><path d="M811.97 531.19L858.75 677.51" stroke="rgba(0, 0, 0, 1)" stroke-width="1.5"></path><path d="M858.75 677.51L858.75 677.51" stroke="rgba(0, 0, 0, 1)" stroke-width="1.5"></path><path d="M858.75 677.51L688.13 561.82" stroke="rgba(0, 0, 0, 1)" stroke-width="1.5"></path><path d="M999.18 -78.23L999.18 -78.23" stroke="rgba(0, 0, 0, 1)" stroke-width="1.5"></path><path d="M999.18 -78.23L1132.02 -67.85" stroke="rgba(0, 0, 0, 1)" stroke-width="1.5"></path><path d="M999.18 -78.23L939.81 106.89" stroke="rgba(0, 0, 0, 1)" stroke-width="1.5"></path><path d="M999.18 -78.23L1133.21 70.71" stroke="rgba(0, 0, 0, 1)" stroke-width="1.5"></path><path d="M999.18 -78.23L1241.3 -97.01" stroke="rgba(0, 0, 0, 1)" stroke-width="1.5"></path><path d="M999.18 -78.23L1101.55 216.65" stroke="rgba(0, 0, 0, 1)" stroke-width="1.5"></path><path d="M939.81 106.89L939.81 106.89" stroke="rgba(0, 0, 0, 1)" stroke-width="1.5"></path><path d="M939.81 106.89L817.01 195.39" stroke="rgba(0, 0, 0, 1)" stroke-width="1.5"></path><path d="M939.81 106.89L994.63 256.65" stroke="rgba(0, 0, 0, 1)" stroke-width="1.5"></path><path d="M994.63 256.65L994.63 256.65" stroke="rgba(0, 0, 0, 1)" stroke-width="1.5"></path><path d="M994.63 256.65L943.2 347.64" stroke="rgba(0, 0, 0, 1)" stroke-width="1.5"></path><path d="M943.2 347.64L943.2 347.64" stroke="rgba(0, 0, 0, 1)" stroke-width="1.5"></path><path d="M943.2 347.64L983.19 500.08" stroke="rgba(0, 0, 0, 1)" stroke-width="1.5"></path><path d="M943.2 347.64L817.01 195.39" stroke="rgba(0, 0, 0, 1)" stroke-width="1.5"></path><path d="M983.19 500.08L983.19 500.08" stroke="rgba(0, 0, 0, 1)" stroke-width="1.5"></path><path d="M983.19 500.08L1091.98 490.33" stroke="rgba(0, 0, 0, 1)" stroke-width="1.5"></path><path d="M1132.02 -67.85L1132.02 -67.85" stroke="rgba(0, 0, 0, 1)" stroke-width="1.5"></path><path d="M1132.02 -67.85L1241.3 -97.01" stroke="rgba(0, 0, 0, 1)" stroke-width="1.5"></path><path d="M1132.02 -67.85L1133.21 70.71" stroke="rgba(0, 0, 0, 1)" stroke-width="1.5"></path><path d="M1132.02 -67.85L1294.52 44.69" stroke="rgba(0, 0, 0, 1)" stroke-width="1.5"></path><path d="M1132.02 -67.85L939.81 106.89" stroke="rgba(0, 0, 0, 1)" stroke-width="1.5"></path><path d="M1132.02 -67.85L1101.55 216.65" stroke="rgba(0, 0, 0, 1)" stroke-width="1.5"></path><path d="M1133.21 70.71L1133.21 70.71" stroke="rgba(0, 0, 0, 1)" stroke-width="1.5"></path><path d="M1133.21 70.71L1101.55 216.65" stroke="rgba(0, 0, 0, 1)" stroke-width="1.5"></path><path d="M1133.21 70.71L1294.52 44.69" stroke="rgba(0, 0, 0, 1)" stroke-width="1.5"></path><path d="M1133.21 70.71L939.81 106.89" stroke="rgba(0, 0, 0, 1)" stroke-width="1.5"></path><path d="M1133.21 70.71L1241.3 -97.01" stroke="rgba(0, 0, 0, 1)" stroke-width="1.5"></path><path d="M1101.55 216.65L1101.55 216.65" stroke="rgba(0, 0, 0, 1)" stroke-width="1.5"></path><path d="M1101.55 216.65L994.63 256.65" stroke="rgba(0, 0, 0, 1)" stroke-width="1.5"></path><path d="M1101.55 216.65L939.81 106.89" stroke="rgba(0, 0, 0, 1)" stroke-width="1.5"></path><path d="M1101.55 216.65L1302.64 258.3" stroke="rgba(0, 0, 0, 1)" stroke-width="1.5"></path><path d="M1101.55 216.65L943.2 347.64" stroke="rgba(0, 0, 0, 1)" stroke-width="1.5"></path><path d="M1101.55 216.65L1245.64 384.45" stroke="rgba(0, 0, 0, 1)" stroke-width="1.5"></path><path d="M1091.98 490.33L1091.98 490.33" stroke="rgba(0, 0, 0, 1)" stroke-width="1.5"></path><path d="M1091.98 490.33L1238.59 494.16" stroke="rgba(0, 0, 0, 1)" stroke-width="1.5"></path><path d="M1091.98 490.33L1245.64 384.45" stroke="rgba(0, 0, 0, 1)" stroke-width="1.5"></path><path d="M1091.98 490.33L943.2 347.64" stroke="rgba(0, 0, 0, 1)" stroke-width="1.5"></path><path d="M1091.98 490.33L1095.93 712.32" stroke="rgba(0, 0, 0, 1)" stroke-width="1.5"></path><path d="M1095.93 712.32L1095.93 712.32" stroke="rgba(0, 0, 0, 1)" stroke-width="1.5"></path><path d="M1095.93 712.32L1276.24 687.97" stroke="rgba(0, 0, 0, 1)" stroke-width="1.5"></path><path d="M1095.93 712.32L858.75 677.51" stroke="rgba(0, 0, 0, 1)" stroke-width="1.5"></path><path d="M1241.3 -97.01L1241.3 -97.01" stroke="rgba(0, 0, 0, 1)" stroke-width="1.5"></path><path d="M1241.3 -97.01L1294.52 44.69" stroke="rgba(0, 0, 0, 1)" stroke-width="1.5"></path><path d="M1294.52 44.69L1294.52 44.69" stroke="rgba(0, 0, 0, 1)" stroke-width="1.5"></path><path d="M1294.52 44.69L1393.77 103.03" stroke="rgba(0, 0, 0, 1)" stroke-width="1.5"></path><path d="M1302.64 258.3L1302.64 258.3" stroke="rgba(0, 0, 0, 1)" stroke-width="1.5"></path><path d="M1302.64 258.3L1391.61 205.64" stroke="rgba(0, 0, 0, 1)" stroke-width="1.5"></path><path d="M1302.64 258.3L1245.64 384.45" stroke="rgba(0, 0, 0, 1)" stroke-width="1.5"></path><path d="M1245.64 384.45L1245.64 384.45" stroke="rgba(0, 0, 0, 1)" stroke-width="1.5"></path><path d="M1245.64 384.45L1238.59 494.16" stroke="rgba(0, 0, 0, 1)" stroke-width="1.5"></path><path d="M1238.59 494.16L1238.59 494.16" stroke="rgba(0, 0, 0, 1)" stroke-width="1.5"></path><path d="M1238.59 494.16L1415.9 532.96" stroke="rgba(0, 0, 0, 1)" stroke-width="1.5"></path><path d="M1238.59 494.16L1276.24 687.97" stroke="rgba(0, 0, 0, 1)" stroke-width="1.5"></path><path d="M1238.59 494.16L1389 637.67" stroke="rgba(0, 0, 0, 1)" stroke-width="1.5"></path><path d="M1238.59 494.16L1302.64 258.3" stroke="rgba(0, 0, 0, 1)" stroke-width="1.5"></path><path d="M1276.24 687.97L1276.24 687.97" stroke="rgba(0, 0, 0, 1)" stroke-width="1.5"></path><path d="M1276.24 687.97L1389 637.67" stroke="rgba(0, 0, 0, 1)" stroke-width="1.5"></path><path d="M1436.41 -53.13L1436.41 -53.13" stroke="rgba(0, 0, 0, 1)" stroke-width="1.5"></path><path d="M1436.41 -53.13L1393.77 103.03" stroke="rgba(0, 0, 0, 1)" stroke-width="1.5"></path><path d="M1436.41 -53.13L1560.4 57.6" stroke="rgba(0, 0, 0, 1)" stroke-width="1.5"></path><path d="M1436.41 -53.13L1607.42 -62.05" stroke="rgba(0, 0, 0, 1)" stroke-width="1.5"></path><path d="M1393.77 103.03L1393.77 103.03" stroke="rgba(0, 0, 0, 1)" stroke-width="1.5"></path><path d="M1393.77 103.03L1391.61 205.64" stroke="rgba(0, 0, 0, 1)" stroke-width="1.5"></path><path d="M1391.61 205.64L1391.61 205.64" stroke="rgba(0, 0, 0, 1)" stroke-width="1.5"></path><path d="M1391.61 205.64L1294.52 44.69" stroke="rgba(0, 0, 0, 1)" stroke-width="1.5"></path><path d="M1391.61 205.64L1596.36 250.23" stroke="rgba(0, 0, 0, 1)" stroke-width="1.5"></path><path d="M1415.9 532.96L1415.9 532.96" stroke="rgba(0, 0, 0, 1)" stroke-width="1.5"></path><path d="M1415.9 532.96L1389 637.67" stroke="rgba(0, 0, 0, 1)" stroke-width="1.5"></path><path d="M1415.9 532.96L1554.19 659.07" stroke="rgba(0, 0, 0, 1)" stroke-width="1.5"></path><path d="M1415.9 532.96L1603.69 524.66" stroke="rgba(0, 0, 0, 1)" stroke-width="1.5"></path><path d="M1389 637.67L1389 637.67" stroke="rgba(0, 0, 0, 1)" stroke-width="1.5"></path><path d="M1389 637.67L1554.19 659.07" stroke="rgba(0, 0, 0, 1)" stroke-width="1.5"></path><path d="M1389 637.67L1603.69 524.66" stroke="rgba(0, 0, 0, 1)" stroke-width="1.5"></path><path d="M1607.42 -62.05L1607.42 -62.05" stroke="rgba(0, 0, 0, 1)" stroke-width="1.5"></path><path d="M1607.42 -62.05L1560.4 57.6" stroke="rgba(0, 0, 0, 1)" stroke-width="1.5"></path><path d="M1607.42 -62.05L1393.77 103.03" stroke="rgba(0, 0, 0, 1)" stroke-width="1.5"></path><path d="M1607.42 -62.05L1596.36 250.23" stroke="rgba(0, 0, 0, 1)" stroke-width="1.5"></path><path d="M1607.42 -62.05L1294.52 44.69" stroke="rgba(0, 0, 0, 1)" stroke-width="1.5"></path><path d="M1560.4 57.6L1560.4 57.6" stroke="rgba(0, 0, 0, 1)" stroke-width="1.5"></path><path d="M1560.4 57.6L1393.77 103.03" stroke="rgba(0, 0, 0, 1)" stroke-width="1.5"></path><path d="M1560.4 57.6L1596.36 250.23" stroke="rgba(0, 0, 0, 1)" stroke-width="1.5"></path><path d="M1560.4 57.6L1391.61 205.64" stroke="rgba(0, 0, 0, 1)" stroke-width="1.5"></path><path d="M1596.36 250.23L1596.36 250.23" stroke="rgba(0, 0, 0, 1)" stroke-width="1.5"></path><path d="M1596.36 250.23L1564.74 358.8" stroke="rgba(0, 0, 0, 1)" stroke-width="1.5"></path><path d="M1564.74 358.8L1564.74 358.8" stroke="rgba(0, 0, 0, 1)" stroke-width="1.5"></path><path d="M1564.74 358.8L1603.69 524.66" stroke="rgba(0, 0, 0, 1)" stroke-width="1.5"></path><path d="M1564.74 358.8L1415.9 532.96" stroke="rgba(0, 0, 0, 1)" stroke-width="1.5"></path><path d="M1564.74 358.8L1391.61 205.64" stroke="rgba(0, 0, 0, 1)" stroke-width="1.5"></path><path d="M1564.74 358.8L1302.64 258.3" stroke="rgba(0, 0, 0, 1)" stroke-width="1.5"></path><path d="M1564.74 358.8L1554.19 659.07" stroke="rgba(0, 0, 0, 1)" stroke-width="1.5"></path><path d="M1603.69 524.66L1603.69 524.66" stroke="rgba(0, 0, 0, 1)" stroke-width="1.5"></path><path d="M1603.69 524.66L1554.19 659.07" stroke="rgba(0, 0, 0, 1)" stroke-width="1.5"></path><path d="M1554.19 659.07L1554.19 659.07" stroke="rgba(0, 0, 0, 1)" stroke-width="1.5"></path><path d="M1554.19 659.07L1276.24 687.97" stroke="rgba(0, 0, 0, 1)" stroke-width="1.5"></path><circle r="5" cx="-68.66" cy="347.67" fill="rgba(0, 0, 0, 1)"></circle><circle r="5" cx="-97.58" cy="491.02" fill="rgba(0, 0, 0, 1)"></circle><circle r="5" cx="-76.28" cy="688.44" fill="rgba(0, 0, 0, 1)"></circle><circle r="5" cx="60.57" cy="658.19" fill="rgba(0, 0, 0, 1)"></circle><circle r="5" cx="234.3" cy="361.59" fill="rgba(0, 0, 0, 1)"></circle><circle r="5" cx="196.53" cy="497.6" fill="rgba(0, 0, 0, 1)"></circle><circle r="5" cx="215.17" cy="681.7" fill="rgba(0, 0, 0, 1)"></circle><circle r="5" cx="405.18" cy="368.86" fill="rgba(0, 0, 0, 1)"></circle><circle r="5" cx="383.25" cy="497.84" fill="rgba(0, 0, 0, 1)"></circle><circle r="5" cx="410.07" cy="642.07" fill="rgba(0, 0, 0, 1)"></circle><circle r="5" cx="512.36" cy="343.44" fill="rgba(0, 0, 0, 1)"></circle><circle r="5" cx="656.16" cy="246.88" fill="rgba(0, 0, 0, 1)"></circle><circle r="5" cx="653.82" cy="353.31" fill="rgba(0, 0, 0, 1)"></circle><circle r="5" cx="688.13" cy="561.82" fill="rgba(0, 0, 0, 1)"></circle><circle r="5" cx="651.16" cy="651.32" fill="rgba(0, 0, 0, 1)"></circle><circle r="5" cx="853.1" cy="58.22" fill="rgba(0, 0, 0, 1)"></circle><circle r="5" cx="817.01" cy="195.39" fill="rgba(0, 0, 0, 1)"></circle><circle r="5" cx="850.46" cy="395.29" fill="rgba(0, 0, 0, 1)"></circle><circle r="5" cx="811.97" cy="531.19" fill="rgba(0, 0, 0, 1)"></circle><circle r="5" cx="858.75" cy="677.51" fill="rgba(0, 0, 0, 1)"></circle><circle r="5" cx="999.18" cy="-78.23" fill="rgba(0, 0, 0, 1)"></circle><circle r="5" cx="939.81" cy="106.89" fill="rgba(0, 0, 0, 1)"></circle><circle r="5" cx="994.63" cy="256.65" fill="rgba(0, 0, 0, 1)"></circle><circle r="5" cx="943.2" cy="347.64" fill="rgba(0, 0, 0, 1)"></circle><circle r="5" cx="983.19" cy="500.08" fill="rgba(0, 0, 0, 1)"></circle><circle r="5" cx="1132.02" cy="-67.85" fill="rgba(0, 0, 0, 1)"></circle><circle r="5" cx="1133.21" cy="70.71" fill="rgba(0, 0, 0, 1)"></circle><circle r="5" cx="1101.55" cy="216.65" fill="rgba(0, 0, 0, 1)"></circle><circle r="5" cx="1091.98" cy="490.33" fill="rgba(0, 0, 0, 1)"></circle><circle r="5" cx="1095.93" cy="712.32" fill="rgba(0, 0, 0, 1)"></circle><circle r="5" cx="1241.3" cy="-97.01" fill="rgba(0, 0, 0, 1)"></circle><circle r="5" cx="1294.52" cy="44.69" fill="rgba(0, 0, 0, 1)"></circle><circle r="5" cx="1302.64" cy="258.3" fill="rgba(0, 0, 0, 1)"></circle><circle r="5" cx="1245.64" cy="384.45" fill="rgba(0, 0, 0, 1)"></circle><circle r="5" cx="1238.59" cy="494.16" fill="rgba(0, 0, 0, 1)"></circle><circle r="5" cx="1276.24" cy="687.97" fill="rgba(0, 0, 0, 1)"></circle><circle r="5" cx="1436.41" cy="-53.13" fill="rgba(0, 0, 0, 1)"></circle><circle r="5" cx="1393.77" cy="103.03" fill="rgba(0, 0, 0, 1)"></circle><circle r="5" cx="1391.61" cy="205.64" fill="rgba(0, 0, 0, 1)"></circle><circle r="5" cx="1415.9" cy="532.96" fill="rgba(0, 0, 0, 1)"></circle><circle r="5" cx="1389" cy="637.67" fill="rgba(0, 0, 0, 1)"></circle><circle r="5" cx="1607.42" cy="-62.05" fill="rgba(0, 0, 0, 1)"></circle><circle r="5" cx="1560.4" cy="57.6" fill="rgba(0, 0, 0, 1)"></circle><circle r="5" cx="1596.36" cy="250.23" fill="rgba(0, 0, 0, 1)"></circle><circle r="5" cx="1564.74" cy="358.8" fill="rgba(0, 0, 0, 1)"></circle><circle r="5" cx="1603.69" cy="524.66" fill="rgba(0, 0, 0, 1)"></circle><circle r="5" cx="1554.19" cy="659.07" fill="rgba(0, 0, 0, 1)"></circle><path d="M250.58 522.01L250.58 522.01" stroke="hsl(0, 0%, 0%)" stroke-width="1.5"></path><path d="M250.58 522.01L370.06 512.6" stroke="hsl(0, 0%, 0%)" stroke-width="1.5"></path><path d="M250.58 522.01L84.82 548.94" stroke="hsl(0, 0%, 0%)" stroke-width="1.5"></path><path d="M250.58 522.01L225.77 709.87" stroke="hsl(0, 0%, 0%)" stroke-width="1.5"></path><path d="M250.58 522.01L396.02 690.75" stroke="hsl(0, 0%, 0%)" stroke-width="1.5"></path><path d="M544.36 680.67L544.36 680.67" stroke="hsl(0, 0%, 0%)" stroke-width="1.5"></path><path d="M544.36 680.67L673.43 710.91" stroke="hsl(0, 0%, 0%)" stroke-width="1.5"></path><path d="M544.36 680.67L558.46 546.27" stroke="hsl(0, 0%, 0%)" stroke-width="1.5"></path><path d="M544.36 680.67L396.02 690.75" stroke="hsl(0, 0%, 0%)" stroke-width="1.5"></path><path d="M544.36 680.67L370.06 512.6" stroke="hsl(0, 0%, 0%)" stroke-width="1.5"></path><path d="M673.43 710.91L673.43 710.91" stroke="hsl(0, 0%, 0%)" stroke-width="1.5"></path><path d="M673.43 710.91L796.34 674.18" stroke="hsl(0, 0%, 0%)" stroke-width="1.5"></path><path d="M673.43 710.91L558.46 546.27" stroke="hsl(0, 0%, 0%)" stroke-width="1.5"></path><path d="M673.43 710.91L702.23 489.84" stroke="hsl(0, 0%, 0%)" stroke-width="1.5"></path><path d="M817.59 499.88L817.59 499.88" stroke="hsl(0, 0%, 0%)" stroke-width="1.5"></path><path d="M817.59 499.88L836.5 389.26" stroke="hsl(0, 0%, 0%)" stroke-width="1.5"></path><path d="M817.59 499.88L702.23 489.84" stroke="hsl(0, 0%, 0%)" stroke-width="1.5"></path><path d="M817.59 499.88L796.34 674.18" stroke="hsl(0, 0%, 0%)" stroke-width="1.5"></path><path d="M817.59 499.88L999.6 506.12" stroke="hsl(0, 0%, 0%)" stroke-width="1.5"></path><path d="M817.59 499.88L988.9 406.26" stroke="hsl(0, 0%, 0%)" stroke-width="1.5"></path><path d="M988.9 406.26L988.9 406.26" stroke="hsl(0, 0%, 0%)" stroke-width="1.5"></path><path d="M988.9 406.26L999.6 506.12" stroke="hsl(0, 0%, 0%)" stroke-width="1.5"></path><path d="M988.9 406.26L1105.16 401.05" stroke="hsl(0, 0%, 0%)" stroke-width="1.5"></path><path d="M1105.16 401.05L1105.16 401.05" stroke="hsl(0, 0%, 0%)" stroke-width="1.5"></path><path d="M1105.16 401.05L999.6 506.12" stroke="hsl(0, 0%, 0%)" stroke-width="1.5"></path><path d="M1105.16 401.05L1255.72 346.77" stroke="hsl(0, 0%, 0%)" stroke-width="1.5"></path><path d="M1105.16 401.05L1144.06 562.42" stroke="hsl(0, 0%, 0%)" stroke-width="1.5"></path><path d="M1105.16 401.05L1277.66 488.75" stroke="hsl(0, 0%, 0%)" stroke-width="1.5"></path><path d="M1105.16 401.05L1291.69 230.39" stroke="hsl(0, 0%, 0%)" stroke-width="1.5"></path><path d="M1395.07 -102.8L1395.07 -102.8" stroke="hsl(0, 0%, 0%)" stroke-width="1.5"></path><path d="M1395.07 -102.8L1563.59 -73.76" stroke="hsl(0, 0%, 0%)" stroke-width="1.5"></path><path d="M1395.07 -102.8L1428.79 100.12" stroke="hsl(0, 0%, 0%)" stroke-width="1.5"></path><path d="M1395.07 -102.8L1306.38 99.92" stroke="hsl(0, 0%, 0%)" stroke-width="1.5"></path><path d="M1395.07 -102.8L1556.8 73.14" stroke="hsl(0, 0%, 0%)" stroke-width="1.5"></path><path d="M1395.07 -102.8L1421.53 197.36" stroke="hsl(0, 0%, 0%)" stroke-width="1.5"></path><path d="M1428.79 100.12L1428.79 100.12" stroke="hsl(0, 0%, 0%)" stroke-width="1.5"></path><path d="M1428.79 100.12L1421.53 197.36" stroke="hsl(0, 0%, 0%)" stroke-width="1.5"></path><path d="M1428.79 100.12L1306.38 99.92" stroke="hsl(0, 0%, 0%)" stroke-width="1.5"></path><path d="M1428.79 100.12L1556.8 73.14" stroke="hsl(0, 0%, 0%)" stroke-width="1.5"></path><path d="M1428.79 100.12L1291.69 230.39" stroke="hsl(0, 0%, 0%)" stroke-width="1.5"></path><path d="M1428.79 100.12L1606.44 228.68" stroke="hsl(0, 0%, 0%)" stroke-width="1.5"></path><path d="M1441.93 365.67L1441.93 365.67" stroke="hsl(0, 0%, 0%)" stroke-width="1.5"></path><path d="M1441.93 365.67L1400.47 529.95" stroke="hsl(0, 0%, 0%)" stroke-width="1.5"></path><path d="M1441.93 365.67L1421.53 197.36" stroke="hsl(0, 0%, 0%)" stroke-width="1.5"></path><path d="M1441.93 365.67L1611.21 382.98" stroke="hsl(0, 0%, 0%)" stroke-width="1.5"></path><path d="M1441.93 365.67L1255.72 346.77" stroke="hsl(0, 0%, 0%)" stroke-width="1.5"></path><path d="M1441.93 365.67L1291.69 230.39" stroke="hsl(0, 0%, 0%)" stroke-width="1.5"></path><path d="M1606.44 228.68L1606.44 228.68" stroke="hsl(0, 0%, 0%)" stroke-width="1.5"></path><path d="M1606.44 228.68L1611.21 382.98" stroke="hsl(0, 0%, 0%)" stroke-width="1.5"></path><path d="M1606.44 228.68L1556.8 73.14" stroke="hsl(0, 0%, 0%)" stroke-width="1.5"></path><path d="M1606.44 228.68L1421.53 197.36" stroke="hsl(0, 0%, 0%)" stroke-width="1.5"></path><path d="M1606.44 228.68L1441.93 365.67" stroke="hsl(0, 0%, 0%)" stroke-width="1.5"></path><path d="M1606.44 228.68L1563.59 -73.76" stroke="hsl(0, 0%, 0%)" stroke-width="1.5"></path><path d="M-94.46 519.87L-94.46 519.87" stroke="hsl(0, 0%, 0%)" stroke-width="1.5"></path><path d="M-94.46 519.87L-101.96 684.16" stroke="hsl(0, 0%, 0%)" stroke-width="1.5"></path><path d="M-94.46 519.87L84.82 548.94" stroke="hsl(0, 0%, 0%)" stroke-width="1.5"></path><path d="M-94.46 519.87L103.48 700.26" stroke="hsl(0, 0%, 0%)" stroke-width="1.5"></path><path d="M-94.46 519.87L250.58 522.01" stroke="hsl(0, 0%, 0%)" stroke-width="1.5"></path><path d="M-94.46 519.87L225.77 709.87" stroke="hsl(0, 0%, 0%)" stroke-width="1.5"></path><path d="M-94.46 519.87L370.06 512.6" stroke="hsl(0, 0%, 0%)" stroke-width="1.5"></path><path d="M-101.96 684.16L-101.96 684.16" stroke="hsl(0, 0%, 0%)" stroke-width="1.5"></path><path d="M-101.96 684.16L103.48 700.26" stroke="hsl(0, 0%, 0%)" stroke-width="1.5"></path><path d="M-101.96 684.16L84.82 548.94" stroke="hsl(0, 0%, 0%)" stroke-width="1.5"></path><path d="M-101.96 684.16L225.77 709.87" stroke="hsl(0, 0%, 0%)" stroke-width="1.5"></path><path d="M-101.96 684.16L250.58 522.01" stroke="hsl(0, 0%, 0%)" stroke-width="1.5"></path><path d="M-101.96 684.16L396.02 690.75" stroke="hsl(0, 0%, 0%)" stroke-width="1.5"></path><path d="M84.82 548.94L84.82 548.94" stroke="hsl(0, 0%, 0%)" stroke-width="1.5"></path><path d="M84.82 548.94L103.48 700.26" stroke="hsl(0, 0%, 0%)" stroke-width="1.5"></path><path d="M103.48 700.26L103.48 700.26" stroke="hsl(0, 0%, 0%)" stroke-width="1.5"></path><path d="M103.48 700.26L225.77 709.87" stroke="hsl(0, 0%, 0%)" stroke-width="1.5"></path><path d="M225.77 709.87L225.77 709.87" stroke="hsl(0, 0%, 0%)" stroke-width="1.5"></path><path d="M225.77 709.87L396.02 690.75" stroke="hsl(0, 0%, 0%)" stroke-width="1.5"></path><path d="M225.77 709.87L84.82 548.94" stroke="hsl(0, 0%, 0%)" stroke-width="1.5"></path><path d="M225.77 709.87L370.06 512.6" stroke="hsl(0, 0%, 0%)" stroke-width="1.5"></path><path d="M225.77 709.87L544.36 680.67" stroke="hsl(0, 0%, 0%)" stroke-width="1.5"></path><path d="M370.06 512.6L370.06 512.6" stroke="hsl(0, 0%, 0%)" stroke-width="1.5"></path><path d="M370.06 512.6L396.02 690.75" stroke="hsl(0, 0%, 0%)" stroke-width="1.5"></path><path d="M370.06 512.6L558.46 546.27" stroke="hsl(0, 0%, 0%)" stroke-width="1.5"></path><path d="M396.02 690.75L396.02 690.75" stroke="hsl(0, 0%, 0%)" stroke-width="1.5"></path><path d="M396.02 690.75L558.46 546.27" stroke="hsl(0, 0%, 0%)" stroke-width="1.5"></path><path d="M558.46 546.27L558.46 546.27" stroke="hsl(0, 0%, 0%)" stroke-width="1.5"></path><path d="M558.46 546.27L702.23 489.84" stroke="hsl(0, 0%, 0%)" stroke-width="1.5"></path><path d="M653.22 370.52L653.22 370.52" stroke="hsl(0, 0%, 0%)" stroke-width="1.5"></path><path d="M653.22 370.52L702.23 489.84" stroke="hsl(0, 0%, 0%)" stroke-width="1.5"></path><path d="M702.23 489.84L702.23 489.84" stroke="hsl(0, 0%, 0%)" stroke-width="1.5"></path><path d="M702.23 489.84L836.5 389.26" stroke="hsl(0, 0%, 0%)" stroke-width="1.5"></path><path d="M836.5 389.26L836.5 389.26" stroke="hsl(0, 0%, 0%)" stroke-width="1.5"></path><path d="M836.5 389.26L988.9 406.26" stroke="hsl(0, 0%, 0%)" stroke-width="1.5"></path><path d="M796.34 674.18L796.34 674.18" stroke="hsl(0, 0%, 0%)" stroke-width="1.5"></path><path d="M796.34 674.18L967.58 707.92" stroke="hsl(0, 0%, 0%)" stroke-width="1.5"></path><path d="M999.6 506.12L999.6 506.12" stroke="hsl(0, 0%, 0%)" stroke-width="1.5"></path><path d="M967.58 707.92L967.58 707.92" stroke="hsl(0, 0%, 0%)" stroke-width="1.5"></path><path d="M967.58 707.92L1104.32 699.44" stroke="hsl(0, 0%, 0%)" stroke-width="1.5"></path><path d="M967.58 707.92L999.6 506.12" stroke="hsl(0, 0%, 0%)" stroke-width="1.5"></path><path d="M967.58 707.92L1144.06 562.42" stroke="hsl(0, 0%, 0%)" stroke-width="1.5"></path><path d="M967.58 707.92L817.59 499.88" stroke="hsl(0, 0%, 0%)" stroke-width="1.5"></path><path d="M1154.98 100.7L1154.98 100.7" stroke="hsl(0, 0%, 0%)" stroke-width="1.5"></path><path d="M1154.98 100.7L1306.38 99.92" stroke="hsl(0, 0%, 0%)" stroke-width="1.5"></path><path d="M1154.98 100.7L1291.69 230.39" stroke="hsl(0, 0%, 0%)" stroke-width="1.5"></path><path d="M1154.98 100.7L1255.72 346.77" stroke="hsl(0, 0%, 0%)" stroke-width="1.5"></path><path d="M1154.98 100.7L1428.79 100.12" stroke="hsl(0, 0%, 0%)" stroke-width="1.5"></path><path d="M1144.06 562.42L1144.06 562.42" stroke="hsl(0, 0%, 0%)" stroke-width="1.5"></path><path d="M1144.06 562.42L1245.75 656.51" stroke="hsl(0, 0%, 0%)" stroke-width="1.5"></path><path d="M1144.06 562.42L1104.32 699.44" stroke="hsl(0, 0%, 0%)" stroke-width="1.5"></path><path d="M1144.06 562.42L1277.66 488.75" stroke="hsl(0, 0%, 0%)" stroke-width="1.5"></path><path d="M1144.06 562.42L999.6 506.12" stroke="hsl(0, 0%, 0%)" stroke-width="1.5"></path><path d="M1104.32 699.44L1104.32 699.44" stroke="hsl(0, 0%, 0%)" stroke-width="1.5"></path><path d="M1104.32 699.44L1245.75 656.51" stroke="hsl(0, 0%, 0%)" stroke-width="1.5"></path><path d="M1306.38 99.92L1306.38 99.92" stroke="hsl(0, 0%, 0%)" stroke-width="1.5"></path><path d="M1306.38 99.92L1291.69 230.39" stroke="hsl(0, 0%, 0%)" stroke-width="1.5"></path><path d="M1306.38 99.92L1421.53 197.36" stroke="hsl(0, 0%, 0%)" stroke-width="1.5"></path><path d="M1306.38 99.92L1556.8 73.14" stroke="hsl(0, 0%, 0%)" stroke-width="1.5"></path><path d="M1291.69 230.39L1291.69 230.39" stroke="hsl(0, 0%, 0%)" stroke-width="1.5"></path><path d="M1291.69 230.39L1255.72 346.77" stroke="hsl(0, 0%, 0%)" stroke-width="1.5"></path><path d="M1255.72 346.77L1255.72 346.77" stroke="hsl(0, 0%, 0%)" stroke-width="1.5"></path><path d="M1277.66 488.75L1277.66 488.75" stroke="hsl(0, 0%, 0%)" stroke-width="1.5"></path><path d="M1277.66 488.75L1400.47 529.95" stroke="hsl(0, 0%, 0%)" stroke-width="1.5"></path><path d="M1277.66 488.75L1255.72 346.77" stroke="hsl(0, 0%, 0%)" stroke-width="1.5"></path><path d="M1245.75 656.51L1245.75 656.51" stroke="hsl(0, 0%, 0%)" stroke-width="1.5"></path><path d="M1245.75 656.51L1277.66 488.75" stroke="hsl(0, 0%, 0%)" stroke-width="1.5"></path><path d="M1245.75 656.51L1428.95 703.45" stroke="hsl(0, 0%, 0%)" stroke-width="1.5"></path><path d="M1421.53 197.36L1421.53 197.36" stroke="hsl(0, 0%, 0%)" stroke-width="1.5"></path><path d="M1421.53 197.36L1291.69 230.39" stroke="hsl(0, 0%, 0%)" stroke-width="1.5"></path><path d="M1400.47 529.95L1400.47 529.95" stroke="hsl(0, 0%, 0%)" stroke-width="1.5"></path><path d="M1400.47 529.95L1561.47 555.07" stroke="hsl(0, 0%, 0%)" stroke-width="1.5"></path><path d="M1428.95 703.45L1428.95 703.45" stroke="hsl(0, 0%, 0%)" stroke-width="1.5"></path><path d="M1428.95 703.45L1400.47 529.95" stroke="hsl(0, 0%, 0%)" stroke-width="1.5"></path><path d="M1428.95 703.45L1611.81 690.88" stroke="hsl(0, 0%, 0%)" stroke-width="1.5"></path><path d="M1428.95 703.45L1561.47 555.07" stroke="hsl(0, 0%, 0%)" stroke-width="1.5"></path><path d="M1563.59 -73.76L1563.59 -73.76" stroke="hsl(0, 0%, 0%)" stroke-width="1.5"></path><path d="M1563.59 -73.76L1556.8 73.14" stroke="hsl(0, 0%, 0%)" stroke-width="1.5"></path><path d="M1563.59 -73.76L1428.79 100.12" stroke="hsl(0, 0%, 0%)" stroke-width="1.5"></path><path d="M1563.59 -73.76L1421.53 197.36" stroke="hsl(0, 0%, 0%)" stroke-width="1.5"></path><path d="M1556.8 73.14L1556.8 73.14" stroke="hsl(0, 0%, 0%)" stroke-width="1.5"></path><path d="M1556.8 73.14L1421.53 197.36" stroke="hsl(0, 0%, 0%)" stroke-width="1.5"></path><path d="M1611.21 382.98L1611.21 382.98" stroke="hsl(0, 0%, 0%)" stroke-width="1.5"></path><path d="M1611.21 382.98L1561.47 555.07" stroke="hsl(0, 0%, 0%)" stroke-width="1.5"></path><path d="M1561.47 555.07L1561.47 555.07" stroke="hsl(0, 0%, 0%)" stroke-width="1.5"></path><path d="M1561.47 555.07L1611.81 690.88" stroke="hsl(0, 0%, 0%)" stroke-width="1.5"></path><path d="M1561.47 555.07L1441.93 365.67" stroke="hsl(0, 0%, 0%)" stroke-width="1.5"></path><path d="M1611.81 690.88L1611.81 690.88" stroke="hsl(0, 0%, 0%)" stroke-width="1.5"></path><path d="M1611.81 690.88L1400.47 529.95" stroke="hsl(0, 0%, 0%)" stroke-width="1.5"></path><path d="M1611.81 690.88L1611.21 382.98" stroke="hsl(0, 0%, 0%)" stroke-width="1.5"></path><path d="M1611.81 690.88L1441.93 365.67" stroke="hsl(0, 0%, 0%)" stroke-width="1.5"></path><circle r="25" cx="250.58" cy="522.01" fill="url(&quot;#SvgjsRadialGradient1009&quot;)"></circle><circle r="25" cx="544.36" cy="680.67" fill="url(&quot;#SvgjsRadialGradient1009&quot;)"></circle><circle r="25" cx="673.43" cy="710.91" fill="url(&quot;#SvgjsRadialGradient1009&quot;)"></circle><circle r="25" cx="817.59" cy="499.88" fill="url(&quot;#SvgjsRadialGradient1009&quot;)"></circle><circle r="25" cx="988.9" cy="406.26" fill="url(&quot;#SvgjsRadialGradient1009&quot;)"></circle><circle r="25" cx="1105.16" cy="401.05" fill="url(&quot;#SvgjsRadialGradient1009&quot;)"></circle><circle r="25" cx="1395.07" cy="-102.8" fill="url(&quot;#SvgjsRadialGradient1009&quot;)"></circle><circle r="25" cx="1428.79" cy="100.12" fill="url(&quot;#SvgjsRadialGradient1009&quot;)"></circle><circle r="25" cx="1441.93" cy="365.67" fill="url(&quot;#SvgjsRadialGradient1009&quot;)"></circle><circle r="25" cx="1606.44" cy="228.68" fill="url(&quot;#SvgjsRadialGradient1009&quot;)"></circle><circle r="5" cx="-94.46" cy="519.87" fill="#808080"></circle><circle r="5" cx="-101.96" cy="684.16" fill="#808080"></circle><circle r="5" cx="84.82" cy="548.94" fill="#808080"></circle><circle r="5" cx="103.48" cy="700.26" fill="#808080"></circle><circle r="5" cx="225.77" cy="709.87" fill="#808080"></circle><circle r="5" cx="370.06" cy="512.6" fill="#808080"></circle><circle r="5" cx="396.02" cy="690.75" fill="#808080"></circle><circle r="5" cx="558.46" cy="546.27" fill="#808080"></circle><circle r="5" cx="653.22" cy="370.52" fill="#808080"></circle><circle r="5" cx="702.23" cy="489.84" fill="#808080"></circle><circle r="5" cx="836.5" cy="389.26" fill="#808080"></circle><circle r="5" cx="796.34" cy="674.18" fill="#808080"></circle><circle r="5" cx="999.6" cy="506.12" fill="#808080"></circle><circle r="5" cx="967.58" cy="707.92" fill="#808080"></circle><circle r="5" cx="1154.98" cy="100.7" fill="#808080"></circle><circle r="5" cx="1144.06" cy="562.42" fill="#808080"></circle><circle r="5" cx="1104.32" cy="699.44" fill="#808080"></circle><circle r="5" cx="1306.38" cy="99.92" fill="#808080"></circle><circle r="5" cx="1291.69" cy="230.39" fill="#808080"></circle><circle r="5" cx="1255.72" cy="346.77" fill="#808080"></circle><circle r="5" cx="1277.66" cy="488.75" fill="#808080"></circle><circle r="5" cx="1245.75" cy="656.51" fill="#808080"></circle><circle r="5" cx="1421.53" cy="197.36" fill="#808080"></circle><circle r="5" cx="1400.47" cy="529.95" fill="#808080"></circle><circle r="5" cx="1428.95" cy="703.45" fill="#808080"></circle><circle r="5" cx="1563.59" cy="-73.76" fill="#808080"></circle><circle r="5" cx="1556.8" cy="73.14" fill="#808080"></circle><circle r="5" cx="1611.21" cy="382.98" fill="#808080"></circle><circle r="5" cx="1561.47" cy="555.07" fill="#808080"></circle><circle r="5" cx="1611.81" cy="690.88" fill="#808080"></circle></g><defs><mask id="SvgjsMask1008"><rect width="1440" height="560" fill="#ffffff"></rect></mask><radialGradient id="SvgjsRadialGradient1009"><stop stop-color="#ffffff" offset="0.1"></stop><stop stop-color="rgba(0, 0, 0, 1)" offset="0.2"></stop><stop stop-color="rgba(0, 0, 0, 0)" offset="1"></stop></radialGradient></defs></svg>